<svg width="3953" height="1258" xmlns="http://www.w3.org/2000/svg" xmlns:xlink="http://www.w3.org/1999/xlink" xml:space="preserve" overflow="hidden"><g transform="translate(-221 -672)"><text fill="#0070C0" font-family="Arial,Arial_MSFontService,sans-serif" font-weight="700" font-size="73" transform="matrix(1 0 0 1 289.69 937)">Linux BSP </text><text fill="#0070C0" font-family="Arial,Arial_MSFontService,sans-serif" font-weight="700" font-size="73" transform="matrix(1 0 0 1 289.69 1025)">Plus for</text><text fill="#0070C0" font-family="Arial,Arial_MSFontService,sans-serif" font-weight="700" font-size="73" transform="matrix(1 0 0 1 373.559 1243)">RZ/G</text><text fill="#0070C0" font-family="Arial,Arial_MSFontService,sans-serif" font-weight="700" font-size="73" transform="matrix(1 0 0 1 373.559 1492)">RZ/V</text><text fill="#0070C0" font-family="Arial,Arial_MSFontService,sans-serif" font-weight="700" font-size="73" transform="matrix(1 0 0 1 373.559 1741)">RZ/T, N</text><path d="M655.5 1222.5 4129.42 1231.15" stroke="#406EA8" stroke-width="4.58333" stroke-linejoin="round" stroke-miterlimit="10" stroke-dasharray="18.3333 13.75" fill="none" fill-rule="evenodd"/><path d="M0 0 3473.92 3.89547" stroke="#406EA8" stroke-width="4.58333" stroke-linejoin="round" stroke-miterlimit="10" stroke-dasharray="18.3333 13.75" fill="none" fill-rule="evenodd" transform="matrix(1 0 0 -1 655.5 1471.4)"/><path d="M655.5 1720.5 4129.42 1720.5" stroke="#406EA8" stroke-width="4.58333" stroke-linejoin="round" stroke-miterlimit="10" stroke-dasharray="18.3333 13.75" fill="none" fill-rule="evenodd"/><text fill="#4E4E4E" font-family="Arial,Arial_MSFontService,sans-serif" font-weight="700" font-size="55" transform="matrix(1 0 0 1 786.406 882)">Linux</text><text fill="#4E4E4E" font-family="Arial,Arial_MSFontService,sans-serif" font-weight="700" font-size="55" transform="matrix(1 0 0 1 774.673 948)">Kernel</text><text fill="#4E4E4E" font-family="Arial,Arial_MSFontService,sans-serif" font-weight="700" font-size="55" transform="matrix(1 0 0 1 1052.34 889)">Boot </text><text fill="#4E4E4E" font-family="Arial,Arial_MSFontService,sans-serif" font-weight="700" font-size="55" transform="matrix(1 0 0 1 1023.42 955)">Loader</text><text fill="#4E4E4E" font-family="Arial,Arial_MSFontService,sans-serif" font-weight="700" font-size="55" transform="matrix(1 0 0 1 1290.96 942)">U</text><text fill="#4E4E4E" font-family="Arial,Arial_MSFontService,sans-serif" font-weight="700" font-size="55" transform="matrix(1 0 0 1 1330.49 942)">-</text><text fill="#4E4E4E" font-family="Arial,Arial_MSFontService,sans-serif" font-weight="700" font-size="55" transform="matrix(1 0 0 1 1348.82 942)">Boot</text><text fill="#4E4E4E" font-family="Arial,Arial_MSFontService,sans-serif" font-weight="700" font-size="55" transform="matrix(1 0 0 1 1551.09 884)">Device</text><text fill="#4E4E4E" font-family="Arial,Arial_MSFontService,sans-serif" font-weight="700" font-size="55" transform="matrix(1 0 0 1 1545.06 950)">Drivers</text><text fill="#4E4E4E" font-family="Arial,Arial_MSFontService,sans-serif" font-weight="700" font-size="55" transform="matrix(1 0 0 1 1843.27 939)">Yocto</text><text fill="#4E4E4E" font-family="Arial,Arial_MSFontService,sans-serif" font-weight="700" font-size="55" transform="matrix(1 0 0 1 2116.92 899)">GPU</text><text fill="#4E4E4E" font-family="Arial,Arial_MSFontService,sans-serif" font-weight="700" font-size="55" transform="matrix(1 0 0 1 2049.32 965)">(OpenGL)</text><text fill="#4E4E4E" font-family="Arial,Arial_MSFontService,sans-serif" font-weight="700" font-size="55" transform="matrix(1 0 0 1 2338.29 842)">Codec</text><text fill="#4E4E4E" font-family="Arial,Arial_MSFontService,sans-serif" font-weight="700" font-size="55" transform="matrix(1 0 0 1 2340.01 908)">(H.264</text><text fill="#4E4E4E" font-family="Arial,Arial_MSFontService,sans-serif" font-weight="700" font-size="55" transform="matrix(1 0 0 1 2332.28 974)">/H.265)</text><text fill="#4E4E4E" font-family="Arial,Arial_MSFontService,sans-serif" font-weight="700" font-size="55" transform="matrix(1 0 0 1 2583.75 939)">Security</text><text fill="#4E4E4E" font-family="Arial,Arial_MSFontService,sans-serif" font-weight="700" font-size="55" transform="matrix(1 0 0 1 2857.43 877)">MultiOS</text><text fill="#4E4E4E" font-family="Arial,Arial_MSFontService,sans-serif" font-weight="700" font-size="55" transform="matrix(1 0 0 1 2811.87 943)">(</text><text fill="#4E4E4E" font-family="Arial,Arial_MSFontService,sans-serif" font-weight="700" font-size="55" transform="matrix(1 0 0 1 2830.2 943)">OpenAMP</text><text fill="#4E4E4E" font-family="Arial,Arial_MSFontService,sans-serif" font-weight="700" font-size="55" transform="matrix(1 0 0 1 3093.17 943)">)</text><text fill="#4E4E4E" font-family="Arial,Arial_MSFontService,sans-serif" font-weight="700" font-size="55" transform="matrix(1 0 0 1 3119.58 837)">DRP</text><text fill="#4E4E4E" font-family="Arial,Arial_MSFontService,sans-serif" font-weight="700" font-size="55" transform="matrix(1 0 0 1 3235.31 837)">-</text><text fill="#4E4E4E" font-family="Arial,Arial_MSFontService,sans-serif" font-weight="700" font-size="55" transform="matrix(1 0 0 1 3253.64 837)">AI</text><text fill="#4E4E4E" font-family="Arial,Arial_MSFontService,sans-serif" font-weight="700" font-size="55" transform="matrix(1 0 0 1 3119.65 903)">(Driver,</text><text fill="#4E4E4E" font-family="Arial,Arial_MSFontService,sans-serif" font-weight="700" font-size="55" transform="matrix(1 0 0 1 3146.78 969)">TVM)</text><text fill="#4E4E4E" font-family="Arial,Arial_MSFontService,sans-serif" font-weight="700" font-size="55" transform="matrix(1 0 0 1 3383.02 950)">XDP</text><text fill="#4E4E4E" font-family="Arial,Arial_MSFontService,sans-serif" font-weight="700" font-size="55" transform="matrix(1 0 0 1 3608.28 945)">DPDK</text><text fill="#4E4E4E" font-family="Arial,Arial_MSFontService,sans-serif" font-weight="700" font-size="55" transform="matrix(1 0 0 1 3857.27 885)">TSN</text><text fill="#4E4E4E" font-family="Arial,Arial_MSFontService,sans-serif" font-weight="700" font-size="55" transform="matrix(1 0 0 1 3823.47 951)">(</text><text fill="#4E4E4E" font-family="Arial,Arial_MSFontService,sans-serif" font-weight="700" font-size="55" transform="matrix(1 0 0 1 3841.8 951)">gPTP</text><text fill="#4E4E4E" font-family="Arial,Arial_MSFontService,sans-serif" font-weight="700" font-size="55" transform="matrix(1 0 0 1 3982.74 951)">)</text><path d="M707 864.385C707 818.333 744.333 781 790.386 781L1945.61 781C1991.67 781 2029 818.333 2029 864.385L2029 1841.61C2029 1887.67 1991.67 1925 1945.61 1925L790.386 1925C744.333 1925 707 1887.67 707 1841.61Z" stroke="#C4C4C4" stroke-width="10.3125" stroke-linejoin="round" stroke-miterlimit="10" fill="none" fill-rule="evenodd"/><text fill="#767676" font-family="Arial,Arial_MSFontService,sans-serif" font-weight="700" font-size="55" transform="matrix(1 0 0 1 1239.17 742)">Linux BSP</text><path d="M0 0 0.000360892 871.005" stroke="#406EA8" stroke-width="4.58333" stroke-linejoin="round" stroke-miterlimit="10" stroke-dasharray="18.3333 13.75" fill="none" fill-rule="evenodd" transform="matrix(1 0 0 -1 860.5 1850.5)"/><path d="M1123.52 1851.38 1115.5 987.5" stroke="#406EA8" stroke-width="4.58333" stroke-linejoin="round" stroke-miterlimit="10" stroke-dasharray="18.3333 13.75" fill="none" fill-rule="evenodd"/><path d="M0 0 0.526542 877.529" stroke="#406EA8" stroke-width="4.58333" stroke-linejoin="round" stroke-miterlimit="10" stroke-dasharray="18.3333 13.75" fill="none" fill-rule="evenodd" transform="matrix(1 0 0 -1 1382.5 1851.03)"/><path d="M1643.53 1850.4 1639.5 981.5" stroke="#406EA8" stroke-width="4.58333" stroke-linejoin="round" stroke-miterlimit="10" stroke-dasharray="18.3333 13.75" fill="none" fill-rule="evenodd"/><path d="M0 0 0.000360892 844.651" stroke="#406EA8" stroke-width="4.58333" stroke-linejoin="round" stroke-miterlimit="10" stroke-dasharray="18.3333 13.75" fill="none" fill-rule="evenodd" transform="matrix(1 0 0 -1 1909.5 1851.15)"/><path d="M0 0 4.90308 854.289" stroke="#406EA8" stroke-width="4.58333" stroke-linejoin="round" stroke-miterlimit="10" stroke-dasharray="18.3333 13.75" fill="none" fill-rule="evenodd" transform="matrix(1 0 0 -1 2172.5 1850.79)"/><path d="M2429.04 1851.15 2422.5 1006.5" stroke="#406EA8" stroke-width="4.58333" stroke-linejoin="round" stroke-miterlimit="10" stroke-dasharray="18.3333 13.75" fill="none" fill-rule="evenodd"/><path d="M0 0 0.192717 880.937" stroke="#406EA8" stroke-width="4.58333" stroke-linejoin="round" stroke-miterlimit="10" stroke-dasharray="18.3333 13.75" fill="none" fill-rule="evenodd" transform="matrix(1 0 0 -1 2692.5 1850.44)"/><path d="M2963.28 1850.86 2962.5 974.5" stroke="#406EA8" stroke-width="4.58333" stroke-linejoin="round" stroke-miterlimit="10" stroke-dasharray="18.3333 13.75" fill="none" fill-rule="evenodd"/><path d="M0 0 10.5745 849.441" stroke="#406EA8" stroke-width="4.58333" stroke-linejoin="round" stroke-miterlimit="10" stroke-dasharray="18.3333 13.75" fill="none" fill-rule="evenodd" transform="matrix(1 0 0 -1 3204.5 1850.94)"/><path d="M3446.79 1850.44 3439.5 980.5" stroke="#406EA8" stroke-width="4.58333" stroke-linejoin="round" stroke-miterlimit="10" stroke-dasharray="18.3333 13.75" fill="none" fill-rule="evenodd"/><path d="M0 0 0.000360892 854.289" stroke="#406EA8" stroke-width="4.58333" stroke-linejoin="round" stroke-miterlimit="10" stroke-dasharray="18.3333 13.75" fill="none" fill-rule="evenodd" transform="matrix(1 0 0 -1 3686.5 1850.79)"/><path d="M3916.32 1850.94 3912.5 982.5" stroke="#406EA8" stroke-width="4.58333" stroke-linejoin="round" stroke-miterlimit="10" stroke-dasharray="18.3333 13.75" fill="none" fill-rule="evenodd"/><path d="M787 1226.5C787 1190.88 817.444 1162 855 1162 892.555 1162 923 1190.88 923 1226.5 923 1262.12 892.555 1291 855 1291 817.444 1291 787 1262.12 787 1226.5Z" fill="#0070C0" fill-rule="evenodd"/><path d="M786 1475.5C786 1439.88 816.445 1411 854 1411 891.555 1411 922 1439.88 922 1475.5 922 1511.12 891.555 1540 854 1540 816.445 1540 786 1511.12 786 1475.5Z" fill="#0070C0" fill-rule="evenodd"/><path d="M788 1718C788 1682.65 818.445 1654 856 1654 893.555 1654 924 1682.65 924 1718 924 1753.35 893.555 1782 856 1782 818.445 1782 788 1753.35 788 1718Z" fill="#0070C0" fill-rule="evenodd"/><path d="M1053 1222C1053 1186.65 1083.22 1158 1120.5 1158 1157.78 1158 1188 1186.65 1188 1222 1188 1257.35 1157.78 1286 1120.5 1286 1083.22 1286 1053 1257.35 1053 1222Z" fill="#0070C0" fill-rule="evenodd"/><path d="M1052 1471.5C1052 1435.88 1082.22 1407 1119.5 1407 1156.78 1407 1187 1435.88 1187 1471.5 1187 1507.12 1156.78 1536 1119.5 1536 1082.22 1536 1052 1507.12 1052 1471.5Z" fill="#0070C0" fill-rule="evenodd"/><path d="M1054 1713.5C1054 1677.88 1084.44 1649 1122 1649 1159.56 1649 1190 1677.88 1190 1713.5 1190 1749.12 1159.56 1778 1122 1778 1084.44 1778 1054 1749.12 1054 1713.5Z" fill="#0070C0" fill-rule="evenodd"/><path d="M1312 1228.5C1312 1192.88 1342.44 1164 1380 1164 1417.56 1164 1448 1192.88 1448 1228.5 1448 1264.12 1417.56 1293 1380 1293 1342.44 1293 1312 1264.12 1312 1228.5Z" fill="#0070C0" fill-rule="evenodd"/><path d="M1311 1477.5C1311 1441.88 1341.44 1413 1379 1413 1416.56 1413 1447 1441.88 1447 1477.5 1447 1513.12 1416.56 1542 1379 1542 1341.44 1542 1311 1513.12 1311 1477.5Z" fill="#0070C0" fill-rule="evenodd"/><path d="M1313 1720C1313 1684.65 1343.44 1656 1381 1656 1418.56 1656 1449 1684.65 1449 1720 1449 1755.35 1418.56 1784 1381 1784 1343.44 1784 1313 1755.35 1313 1720Z" fill="#0070C0" fill-rule="evenodd"/><path d="M1578 1224C1578 1188.65 1608.22 1160 1645.5 1160 1682.78 1160 1713 1188.65 1713 1224 1713 1259.35 1682.78 1288 1645.5 1288 1608.22 1288 1578 1259.35 1578 1224Z" fill="#0070C0" fill-rule="evenodd"/><path d="M1577 1473C1577 1437.65 1607.22 1409 1644.5 1409 1681.78 1409 1712 1437.65 1712 1473 1712 1508.35 1681.78 1537 1644.5 1537 1607.22 1537 1577 1508.35 1577 1473Z" fill="#0070C0" fill-rule="evenodd"/><path d="M1579 1715.5C1579 1679.88 1609.44 1651 1647 1651 1684.56 1651 1715 1679.88 1715 1715.5 1715 1751.12 1684.56 1780 1647 1780 1609.44 1780 1579 1751.12 1579 1715.5Z" fill="#0070C0" fill-rule="evenodd"/><path d="M1836 1228.5C1836 1192.88 1866.44 1164 1904 1164 1941.56 1164 1972 1192.88 1972 1228.5 1972 1264.12 1941.56 1293 1904 1293 1866.44 1293 1836 1264.12 1836 1228.5Z" fill="#0070C0" fill-rule="evenodd"/><path d="M1835 1477.5C1835 1441.88 1865.44 1413 1903 1413 1940.56 1413 1971 1441.88 1971 1477.5 1971 1513.12 1940.56 1542 1903 1542 1865.44 1542 1835 1513.12 1835 1477.5Z" fill="#0070C0" fill-rule="evenodd"/><path d="M1837 1719.5C1837 1683.88 1867.44 1655 1905 1655 1942.56 1655 1973 1683.88 1973 1719.5 1973 1755.12 1942.56 1784 1905 1784 1867.44 1784 1837 1755.12 1837 1719.5Z" fill="#0070C0" fill-rule="evenodd"/><path d="M2099 1228.5C2099 1192.88 2129.44 1164 2167 1164 2204.56 1164 2235 1192.88 2235 1228.5 2235 1264.12 2204.56 1293 2167 1293 2129.44 1293 2099 1264.12 2099 1228.5Z" fill="#0070C0" fill-rule="evenodd"/><path d="M2098 1477.5C2098 1441.88 2128.44 1413 2166 1413 2203.56 1413 2234 1441.88 2234 1477.5 2234 1513.12 2203.56 1542 2166 1542 2128.44 1542 2098 1513.12 2098 1477.5Z" fill="#0070C0" fill-rule="evenodd"/><path d="M2352 1228.5C2352 1192.88 2382.22 1164 2419.5 1164 2456.78 1164 2487 1192.88 2487 1228.5 2487 1264.12 2456.78 1293 2419.5 1293 2382.22 1293 2352 1264.12 2352 1228.5Z" fill="#0070C0" fill-rule="evenodd"/><path d="M2351 1477.5C2351 1441.88 2381.22 1413 2418.5 1413 2455.78 1413 2486 1441.88 2486 1477.5 2486 1513.12 2455.78 1542 2418.5 1542 2381.22 1542 2351 1513.12 2351 1477.5Z" fill="#0070C0" fill-rule="evenodd"/><path d="M2622 1231.5C2622 1195.88 2652.44 1167 2690 1167 2727.56 1167 2758 1195.88 2758 1231.5 2758 1267.12 2727.56 1296 2690 1296 2652.44 1296 2622 1267.12 2622 1231.5Z" fill="#0070C0" fill-rule="evenodd"/><path d="M2621 1480.5C2621 1444.88 2651.44 1416 2689 1416 2726.56 1416 2757 1444.88 2757 1480.5 2757 1516.12 2726.56 1545 2689 1545 2651.44 1545 2621 1516.12 2621 1480.5Z" fill="#0070C0" fill-rule="evenodd"/><path d="M2624 1723C2624 1687.65 2654.22 1659 2691.5 1659 2728.78 1659 2759 1687.65 2759 1723 2759 1758.35 2728.78 1787 2691.5 1787 2654.22 1787 2624 1758.35 2624 1723Z" fill="#0070C0" fill-rule="evenodd"/><path d="M2886 1228.5C2886 1192.88 2916.44 1164 2954 1164 2991.56 1164 3022 1192.88 3022 1228.5 3022 1264.12 2991.56 1293 2954 1293 2916.44 1293 2886 1264.12 2886 1228.5Z" fill="#0070C0" fill-rule="evenodd"/><path d="M2885 1477.5C2885 1441.88 2915.44 1413 2953 1413 2990.56 1413 3021 1441.88 3021 1477.5 3021 1513.12 2990.56 1542 2953 1542 2915.44 1542 2885 1513.12 2885 1477.5Z" fill="#0070C0" fill-rule="evenodd"/><path d="M2888 1719.5C2888 1683.88 2918.22 1655 2955.5 1655 2992.78 1655 3023 1683.88 3023 1719.5 3023 1755.12 2992.78 1784 2955.5 1784 2918.22 1784 2888 1755.12 2888 1719.5Z" fill="#0070C0" fill-rule="evenodd"/><path d="M3133 1475.5C3133 1439.88 3163.22 1411 3200.5 1411 3237.78 1411 3268 1439.88 3268 1475.5 3268 1511.12 3237.78 1540 3200.5 1540 3163.22 1540 3133 1511.12 3133 1475.5Z" fill="#0070C0" fill-rule="evenodd"/><path d="M3848 1723C3848 1687.65 3878.44 1659 3916 1659 3953.56 1659 3984 1687.65 3984 1723 3984 1758.35 3953.56 1787 3916 1787 3878.44 1787 3848 1758.35 3848 1723Z" fill="#0070C0" fill-rule="evenodd"/><path d="M3612 1728C3612 1692.65 3642.44 1664 3680 1664 3717.56 1664 3748 1692.65 3748 1728 3748 1763.35 3717.56 1792 3680 1792 3642.44 1792 3612 1763.35 3612 1728Z" fill="#0070C0" fill-rule="evenodd"/><path d="M3380 1724.5C3380 1688.88 3410.44 1660 3448 1660 3485.56 1660 3516 1688.88 3516 1724.5 3516 1760.12 3485.56 1789 3448 1789 3410.44 1789 3380 1760.12 3380 1724.5Z" fill="#0070C0" fill-rule="evenodd"/><path d="M228 1140.84C228 1099.51 261.508 1066 302.843 1066L4092.16 1066C4133.49 1066 4167 1099.51 4167 1140.84L4167 1812.16C4167 1853.49 4133.49 1887 4092.16 1887L302.843 1887C261.508 1887 228 1853.49 228 1812.16Z" stroke="#0070C0" stroke-width="13.75" stroke-linejoin="round" stroke-miterlimit="10" fill="none" fill-rule="evenodd"/></g></svg>